<?xml version="1.0" encoding="UTF-8" standalone="no"?>
<!-- Generator: Adobe Illustrator 14.0.0, SVG Export Plug-In . SVG Version: 6.00 Build 43363)  -->

<svg
   xmlns:dc="http://purl.org/dc/elements/1.1/"
   xmlns:cc="http://creativecommons.org/ns#"
   xmlns:rdf="http://www.w3.org/1999/02/22-rdf-syntax-ns#"
   xmlns:svg="http://www.w3.org/2000/svg"
   xmlns="http://www.w3.org/2000/svg"
   xmlns:sodipodi="http://sodipodi.sourceforge.net/DTD/sodipodi-0.dtd"
   xmlns:inkscape="http://www.inkscape.org/namespaces/inkscape"
   version="1.2"
   x="0px"
   y="0px"
   width="67.5"
   height="68.585793"
   viewBox="0 0 67.499997 68.585791"
   xml:space="preserve"
   id="svg6511"
   inkscape:version="0.48.5 r10040"
   sodipodi:docname="3W_led_breadboard.svg"><metadata
   id="metadata9451"><rdf:RDF><cc:Work
       rdf:about=""><dc:format>image/svg+xml</dc:format><dc:type
         rdf:resource="http://purl.org/dc/dcmitype/StillImage" /><dc:title></dc:title></cc:Work></rdf:RDF></metadata><defs
   id="defs9449" /><sodipodi:namedview
   pagecolor="#ffffff"
   bordercolor="#666666"
   borderopacity="1"
   objecttolerance="10"
   gridtolerance="10"
   guidetolerance="10"
   inkscape:pageopacity="0"
   inkscape:pageshadow="2"
   inkscape:window-width="1920"
   inkscape:window-height="1018"
   id="namedview9447"
   showgrid="false"
   inkscape:zoom="16"
   inkscape:cx="12.067483"
   inkscape:cy="24.96355"
   inkscape:window-x="-8"
   inkscape:window-y="-8"
   inkscape:window-maximized="1"
   inkscape:current-layer="layer10"
   fit-margin-top="0"
   fit-margin-left="0"
   fit-margin-right="0"
   fit-margin-bottom="0" />


<g
   inkscape:groupmode="layer"
   id="layer10"
   inkscape:label="Parts"><path
     style="font-size:medium;font-style:normal;font-variant:normal;font-weight:normal;font-stretch:normal;text-indent:0;text-align:start;text-decoration:none;line-height:normal;letter-spacing:normal;word-spacing:normal;text-transform:none;direction:ltr;block-progression:tb;writing-mode:lr-tb;text-anchor:start;baseline-shift:baseline;color:#000000;fill:#212121;stroke:#000000;stroke-width:0.10000000000000001;stroke-miterlimit:4;stroke-dasharray:none;marker:none;visibility:visible;display:inline;overflow:visible;enable-background:accumulate;font-family:Sans;-inkscape-font-specification:Sans;fill-opacity:1"
     d="m 26.6875,0.65625 c -0.867666,0.065293 -1.384835,0.24472252 -2.3125,0.75 -1.613597,0.8788881 -4.992002,2.7638148 -7.125,3.96875 -0.957752,0.5410359 -2.997981,1.6513441 -4.53125,2.5 -1.782522,0.9866157 -2.7935162,1.5942367 -3.40625,2 -0.6127338,0.405763 -0.825215,0.613707 -0.9375,0.875 -0.1840618,0.428322 -0.2267023,0.772857 -0.09375,1.125 0.1329523,0.352143 0.4590614,0.71171 1,1.21875 1.487755,1.394523 1.891746,2.059135 2.25,3.59375 0.307277,1.31625 0.311419,1.398262 -0.09375,2.59375 -1.143754,3.374752 -4.725396,5.069735 -8,3.78125 C 2.7343587,22.78583 2.2008234,22.68431 1.8125,22.75 1.4241766,22.815693 1.186179,23.073306 0.96875,23.5 0.79680154,23.837441 0.6815931,24.090616 0.625,24.8125 c -0.0565931,0.721884 -0.0754958,1.892813 -0.09375,4 -0.0155771,1.798142 -0.0572548,4.543445 -0.09375,6.09375 -0.042175,1.791587 0.0441979,4.118616 0.25,6.40625 l 0.34375,3.5625 0,0.03125 0.5625,0.25 c 0.2741074,0.133518 0.4757517,0.188092 0.71875,0.1875 0.2429983,-5.92e-4 0.5419592,-0.05118 1.09375,-0.1875 1.44916,-0.358029 3.084786,-0.225719 4.84375,0.40625 0.8533751,0.306605 1.2117745,0.576407 1.78125,1.3125 1.190098,1.538298 1.544704,3.174778 1.03125,4.96875 -0.298472,1.042841 -0.918734,1.854934 -2.84375,3.8125 C 8.0347648,55.843346 7.932318,56.008918 7.875,56.1875 7.81768,56.366082 7.788826,56.560403 7.8125,56.875 7.835138,57.175826 7.857324,57.391527 8,57.625 c 0.1426758,0.233473 0.4324308,0.503444 1.0625,0.9375 1.260138,0.868113 3.827164,2.364056 9.15625,5.46875 1.712686,0.997802 4.630271,2.741753 5.25,3.15625 0.703735,0.470682 1.465557,0.770879 2.125,0.875 0.659443,0.104121 1.20033,0.01125 1.53125,-0.28125 0.03258,-0.0288 0.07434,-0.09106 0.125,-0.1875 0.05066,-0.09644 0.133,-0.201856 0.1875,-0.34375 0.109,-0.283787 0.19949,-0.642575 0.28125,-1 0.502978,-2.198811 1.949285,-4.087115 3.65625,-4.71875 0.331851,-0.122797 1.175879,-0.2608 1.875,-0.3125 2.98466,-0.220415 5.321686,1.728749 5.9375,4.90625 0.06998,0.361085 0.14522,0.706994 0.21875,1 0.07353,0.293006 0.15203,0.52231 0.1875,0.59375 0.01259,0.02536 0.04634,0.04191 0.0625,0.0625 0.0046,0.008 -0.0049,0.02355 0,0.03125 0.0087,0.0097 0.02135,0.02264 0.03125,0.03125 0.02784,0.03623 0.05623,0.06439 0.09375,0.09375 l 2.4375,0.40625 c 0.361151,-0.02293 0.714696,-0.145016 1.21875,-0.375 0.504054,-0.229984 1.148363,-0.567613 1.90625,-1 1.230444,-0.701988 3.120527,-1.769179 4.21875,-2.375 3.37332,-1.860854 5.814573,-3.219943 7.4375,-4.1875 0.811463,-0.483778 1.407959,-0.888749 1.84375,-1.1875 0.217895,-0.149375 0.392248,-0.259536 0.53125,-0.375 0.139002,-0.115464 0.244921,-0.208586 0.34375,-0.375 0.276898,-0.466257 0.420381,-1.028885 0.21875,-1.53125 -0.201631,-0.502365 -0.624012,-0.878282 -1.25,-1.40625 -1.64861,-1.390463 -1.941215,-1.958918 -2.09375,-4 -0.111739,-1.49497 -0.09881,-1.603187 0.25,-2.40625 0.416819,-0.959648 1.302685,-1.984268 2.3125,-2.625 0.439177,-0.27866 1.2233,-0.515343 2.0625,-0.5625 0.8392,-0.04716 1.738149,0.06514 2.40625,0.3125 0.711353,0.263372 1.334371,0.397737 1.875,0.375 0.540629,-0.02274 1.024833,-0.226496 1.34375,-0.625 0.286861,-0.358449 0.471321,-0.824103 0.5625,-1.5 0.09118,-0.675897 0.120283,-1.611901 0.125,-3.09375 0.0044,-1.391221 0.02461,-3.755582 0.0625,-5.25 C 67.633315,34.595674 67.585759,31.978654 67.5,30 67.45712,29.010673 67.392336,28.198891 67.34375,27.71875 67.3316,27.598715 67.32713,27.49138 67.3125,27.40625 c -0.0073,-0.04256 -0.01684,-0.07533 -0.03125,-0.125 0.0069,0.0051 0.02437,-0.0052 0.03125,0 -0.0072,-0.07076 -0.73256,-2.845934 -0.75,-2.96875 C 66.53143,24.093662 66.46805,23.902308 66.375,23.78125 66.28195,23.66019 66.173754,23.60017 66,23.5625 c -0.347508,-0.07534 -0.907214,0.01748 -1.6875,0.28125 -1.36719,0.46217 -2.682396,0.58663 -3.75,0.375 C 60.102385,24.12754 59.512396,23.897729 59.03125,23.625 58.790677,23.488635 58.594345,23.318917 58.4375,23.1875 58.280655,23.056083 58.16525,22.963476 58.15625,22.84375 58.15225,22.79129 58.12446,22.69397 58.0625,22.625 58.00054,22.55603 57.90112,22.50793 57.8125,22.46875 57.695333,22.41695 57.559806,22.260492 57.40625,22.0625 57.252694,21.864508 57.104045,21.631663 56.96875,21.375 56.219674,19.953954 56.11924,17.897845 56.75,16.4375 c 0.4865,-1.126355 1.44105,-2.265639 2.40625,-2.875 0.658342,-0.415631 0.958564,-1.041996 0.78125,-1.6875 C 59.88899,11.698414 59.7249,11.506294 59.34375,11.21875 58.9626,10.931206 58.348633,10.557858 57.40625,10 54.968738,8.5570791 48.591755,4.7166357 44.3125,2.15625 43.66539,1.7690681 42.988826,1.4227323 42.46875,1.15625 42.208712,1.0230088 41.99281,0.9223324 41.8125,0.84375 41.63219,0.7651676 41.49462,0.69452 41.4375,0.6875 41.01004,0.6349654 40.702958,0.7557923 40.46875,1.03125 c -0.234208,0.2754577 -0.381258,0.7323677 -0.5,1.4375 -0.502188,2.982177 -2.459936,4.9224113 -5.375,5.34375 C 33.373439,7.9888816 33.071578,7.9886268 32.125,7.625 30.819542,7.1235099 29.449214,5.8579672 28.9375,4.6875 28.732475,4.2185372 28.491148,3.2005189 28.375,2.40625 28.317474,2.0128615 28.22929,1.6092084 28.15625,1.3125 28.11973,1.1641458 28.09577,1.0647533 28.0625,0.96875 28.02923,0.8727467 27.98253,0.7961887 27.96875,0.78125 27.95013,0.7610661 27.91525,0.7394783 27.84375,0.71875 27.77225,0.6980217 27.675336,0.6671267 27.5625,0.65625 c -0.225673,-0.0217535 -0.534592,-0.0256161 -0.875,0 z"
     id="path9691"
     inkscape:connector-curvature="0"
     sodipodi:nodetypes="ssssssssssssssssccccssssssssssssscsssscssccccccssssssssscssssssscsscccccsssssscsssssscsssssssssssssscsss" /><path
     sodipodi:type="arc"
     style="fill:#edecec;stroke:#000000;stroke-width:0.10000000000000001;stroke-miterlimit:4;stroke-opacity:1;stroke-dasharray:none;fill-opacity:1"
     id="path10924"
     sodipodi:cx="35.708893"
     sodipodi:cy="33.009483"
     sodipodi:rx="12.727922"
     sodipodi:ry="12.816311"
     d="m 48.436815,33.009483 a 12.727922,12.816311 0 1 1 -25.455845,0 12.727922,12.816311 0 1 1 25.455845,0 z"
     transform="matrix(1.0863814,0,0,1.0863814,-4.1894385,-1.6657971)" /><rect
     style="fill:#9a916c;stroke:#000000;stroke-width:0.09932264000000000;stroke-miterlimit:4;stroke-opacity:1;stroke-dasharray:none;fill-opacity:1"
     id="minus1"
     width="14.977486"
     height="9.6962767"
     x="5.4410019"
     y="17.142782"
     transform="matrix(0.88587042,-0.46393275,0.47392446,0.88056551,0,0)"
     ry="1.7"
     inkscape:label="minus"><desc
       id="desc10980">minus</desc><title
       id="title10978">minus</title></rect><rect
     ry="1.7"
     transform="matrix(0.88587042,-0.46393275,0.47392446,0.88056551,0,0)"
     y="66.193413"
     x="6.1392546"
     height="9.6962767"
     width="14.977486"
     id="plus"
     style="fill:#9a916c;stroke:#000000;stroke-width:0.09932264000000000;stroke-miterlimit:4;stroke-opacity:1;stroke-dasharray:none;fill-opacity:1"
     inkscape:label="plus"><desc
       id="desc10972">plus</desc><title
       id="title10970">plus</title></rect><rect
     style="fill:#9a916c;stroke:#000000;stroke-width:0.09932264000000000;stroke-miterlimit:4;stroke-opacity:1;stroke-dasharray:none;fill-opacity:1"
     id="minus"
     width="14.977486"
     height="9.6962767"
     x="38.786449"
     y="32.458099"
     transform="matrix(0.86282358,0.50550517,-0.49571215,0.86848688,0,0)"
     ry="1.7"
     inkscape:label="minus"><desc
       id="desc10968">minus</desc><title
       id="title10966">minus</title></rect><rect
     ry="1.7"
     transform="matrix(0.86282358,0.50550517,-0.49571215,0.86848688,0,0)"
     y="-16.446455"
     x="39.577957"
     height="9.6962767"
     width="14.977486"
     id="plus1"
     style="fill:#9a916c;stroke:#000000;stroke-width:0.09932264000000000;stroke-miterlimit:4;stroke-opacity:1;stroke-dasharray:none;fill-opacity:1"
     inkscape:label="plus"><desc
       id="desc10976">plus</desc><title
       id="title10974">plus</title></rect><path
     transform="matrix(0.51600567,0,0,0.51272367,16.215748,16.91026)"
     d="m 48.436815,33.009483 a 12.727922,12.816311 0 1 1 -25.455845,0 12.727922,12.816311 0 1 1 25.455845,0 z"
     sodipodi:ry="12.816311"
     sodipodi:rx="12.727922"
     sodipodi:cy="33.009483"
     sodipodi:cx="35.708893"
     id="path10936"
     style="fill:#afa9a0;stroke:#000000;stroke-width:0.10000000000000001;stroke-miterlimit:4;stroke-opacity:1;stroke-dasharray:none;fill-opacity:1"
     sodipodi:type="arc" /><rect
     style="fill:#c78278;stroke:none;stroke-width:0.10000000000000001;stroke-miterlimit:4;stroke-opacity:1;stroke-dasharray:none;fill-opacity:1"
     id="rect10938"
     width="4.5961943"
     height="4.9497476"
     x="32.438522"
     y="31.551075" /><text
     xml:space="preserve"
     style="font-size:40px;font-style:normal;font-variant:normal;font-weight:normal;font-stretch:normal;line-height:125%;letter-spacing:0px;word-spacing:0px;fill:#000000;fill-opacity:1;stroke:none;font-family:Droid Sans;-inkscape-font-specification:Droid Sans"
     x="57.648438"
     y="23.023293"
     id="text10940"
     sodipodi:linespacing="125%"><tspan
       sodipodi:role="line"
       x="57.648438"
       y="23.023293"
       style="text-align:center;text-anchor:middle"
       id="tspan10944" /></text>
<text
     xml:space="preserve"
     style="font-size:40px;font-style:normal;font-variant:normal;font-weight:normal;font-stretch:normal;line-height:125%;letter-spacing:0px;word-spacing:0px;fill:#000000;fill-opacity:1;stroke:none;font-family:Droid Sans;-inkscape-font-specification:Droid Sans"
     x="47.5625"
     y="29.273293"
     id="text10948"
     sodipodi:linespacing="125%"><tspan
       sodipodi:role="line"
       id="tspan10950"
       x="47.5625"
       y="29.273293"
       style="font-size:12px;fill:#ffffff">+</tspan></text>
<text
     sodipodi:linespacing="125%"
     id="text10952"
     y="49.648293"
     x="47.5625"
     style="font-size:40px;font-style:normal;font-variant:normal;font-weight:normal;font-stretch:normal;line-height:125%;letter-spacing:0px;word-spacing:0px;fill:#000000;fill-opacity:1;stroke:none;font-family:Droid Sans;-inkscape-font-specification:Droid Sans"
     xml:space="preserve"><tspan
       style="font-size:12px;fill:#ffffff"
       y="49.648293"
       x="47.5625"
       id="tspan10954"
       sodipodi:role="line">+</tspan></text>
<text
     sodipodi:linespacing="125%"
     id="text10956"
     y="27.585793"
     x="15.125001"
     style="font-size:40px;font-style:normal;font-variant:normal;font-weight:normal;font-stretch:normal;line-height:125%;letter-spacing:0px;word-spacing:0px;fill:#000000;fill-opacity:1;stroke:none;font-family:Droid Sans;-inkscape-font-specification:Droid Sans"
     xml:space="preserve"><tspan
       style="font-size:12px;fill:#ffffff"
       y="27.585793"
       x="15.125001"
       id="tspan10958"
       sodipodi:role="line">-</tspan></text>
<text
     xml:space="preserve"
     style="font-size:40px;font-style:normal;font-variant:normal;font-weight:normal;font-stretch:normal;line-height:125%;letter-spacing:0px;word-spacing:0px;fill:#000000;fill-opacity:1;stroke:none;font-family:Droid Sans;-inkscape-font-specification:Droid Sans"
     x="15.125001"
     y="47.960793"
     id="text10960"
     sodipodi:linespacing="125%"><tspan
       sodipodi:role="line"
       id="tspan10962"
       x="15.125001"
       y="47.960793"
       style="font-size:12px;fill:#ffffff">-</tspan></text>
</g></svg>